<svg height="496pt" viewBox="-16 0 496 496.02535" width="496pt" xmlns="http://www.w3.org/2000/svg"><path d="m48.011719 48h256v280h-256zm0 0" fill="#bdfdff"/><g fill="#bcbec0"><path d="m48.011719 448-40 40h336l-40-40zm0 0"/><path d="m48.011719 312.441406v-264.441406l-40-40v480l40-40zm0 0"/><path d="m344.011719 8-40 40v400l40 40zm0 0"/><path d="m304.011719 48 40-40h-336l40 40zm0 0"/></g><path d="m168.011719 312-56-64-64 64.441406v135.558594h256v-135.558594l-64-80.441406zm0 0" fill="#91cc04"/><path d="m344.011719 256v168l112 64-72-232zm0 0" fill="#414042"/><path d="m168.011719 176c0 22.089844-17.90625 40-40 40-22.089844 0-40-17.910156-40-40s17.910156-40 40-40c22.09375 0 40 17.910156 40 40zm0 0" fill="#ffda44"/><path d="m463.652344 485.601562-72-232c-1.046875-3.335937-4.144532-5.605468-7.640625-5.601562h-32v-240c0-4.417969-3.582031-8-8-8h-336c-4.417969 0-8.0000002 3.582031-8.0000002 8v480c0 4.417969 3.5820312 8 8.0000002 8h336c4.417969 0 8-3.582031 8-8v-50.214844l100 57.160156c2.859375 1.660157 6.445312 1.386719 9.027343-.679687 2.578126-2.070313 3.617188-5.515625 2.613282-8.664063zm-167.640625-196.066406-49.734375-62.519531c-1.46875-1.84375-3.671875-2.945313-6.023438-3.015625-2.363281-.132812-4.652344.847656-6.183594 2.648438l-65.96875 73.304687-50.074218-57.226563c-1.460938-1.664062-3.546875-2.652343-5.761719-2.722656-2.214844-.066406-4.363281.785156-5.925781 2.355469l-50.328125 50.671875v-237.03125h240zm-240 26.199219 55.632812-56 50.351563 57.546875c1.507812 1.71875 3.675781 2.710938 5.960937 2.726562h.054688c2.269531 0 4.429687-.960937 5.945312-2.648437l65.679688-72.976563 56.375 70.855469v124.761719h-240zm244.6875-275.734375h-249.375l-24-24h297.375zm-260.6875 11.3125v393.375l-24 24v-441.375zm11.3125 404.6875h249.375l24 24h-297.375zm260.6875-11.3125v-393.375l24-24v441.375zm40-25.328125v-155.359375h26.105469l64.238281 206.984375zm0 0" fill="#231f20"/><path d="m128.011719 224c26.511719 0 48-21.492188 48-48s-21.488281-48-48-48c-26.507813 0-48 21.492188-48 48 .027343 26.5 21.503906 47.972656 48 48zm0-80c17.675781 0 32 14.328125 32 32s-14.324219 32-32 32c-17.671875 0-32-14.328125-32-32s14.328125-32 32-32zm0 0" fill="#231f20"/></svg>