<?xml version="1.0" encoding="iso-8859-1"?>
<!-- Generator: Adobe Illustrator 21.0.0, SVG Export Plug-In . SVG Version: 6.00 Build 0)  -->
<svg xmlns="http://www.w3.org/2000/svg" xmlns:xlink="http://www.w3.org/1999/xlink" version="1.1" id="Capa_1" x="0px" y="0px" viewBox="0 0 512.005 512.005" style="enable-background:new 0 0 512.005 512.005;" xml:space="preserve" width="512" height="512">
<g>
	<g>
		<path style="fill:#C9DFF7;" d="M471.001,480.663H41.668c-5.523,0-10-4.477-10-10V131.329c0-5.523,4.477-10,10-10h429.333    c5.523,0,10,4.477,10,10v339.333C481.001,476.186,476.524,480.663,471.001,480.663z"/>
		<path style="fill:#AECEF2;" d="M471.001,121.329H256.335v359.333h214.667c5.523,0,10-4.477,10-10V131.329    C481.001,125.807,476.524,121.329,471.001,121.329z"/>
	</g>
	<g>
		<g>
			<path style="fill:#696453;" d="M340.999,122.005c-4.039,0-8.064-1.621-11.021-4.821l-73.984-80.079l-73.98,80.079     c-5.621,6.086-15.111,6.462-21.196,0.839c-6.085-5.621-6.461-15.111-0.839-21.196l84.998-92.005     C247.815,1.748,251.809,0,255.994,0c4.184,0,8.178,1.748,11.018,4.821l85.002,92.005c5.622,6.085,5.246,15.574-0.839,21.196     C348.29,120.688,344.639,122.005,340.999,122.005z"/>
		</g>
		<path style="fill:#4C4A40;" d="M267.011,4.821c-2.762-2.989-6.618-4.711-10.677-4.804v37.456l73.643,79.71    c2.957,3.2,6.982,4.821,11.021,4.821c3.64,0,7.29-1.317,10.175-3.982c6.085-5.622,6.461-15.111,0.839-21.196L267.011,4.821z"/>
	</g>
	<g>
		<g>
			<path style="fill:#A85A16;" d="M88.728,471.736l198.063-198.063c10.388-10.389,24.199-16.109,38.891-16.109     c14.69,0,28.503,5.721,38.891,16.109l107.376,107.376l0.05,90.96L88.728,471.736z"/>
			<path style="fill:#8F4300;" d="M325.695,257.564v214.341l146.303,0.105l-0.05-90.96L364.572,273.673     C354.187,263.287,340.38,257.567,325.695,257.564z"/>
		</g>
		<g>
			<path style="fill:#F2984E;" d="M40.002,428.491l86.214-86.213c21.442-21.443,56.335-21.445,77.781,0l129.695,129.694H40.002     C39.987,471.972,40.002,428.491,40.002,428.491z"/>
			<path style="fill:#D17A24;" d="M165.107,471.972h168.585L203.998,342.278c-10.723-10.722-24.807-16.083-38.891-16.083V471.972z"/>
		</g>
	</g>
	<g>
		<path style="fill:#F2F8FB;" d="M155.725,230.831H119.22c-8.284,0-15-6.716-15-15c0-8.284,6.716-15,15-15h36.505    c8.284,0,15,6.716,15,15C170.725,224.115,164.009,230.831,155.725,230.831z"/>
		<path style="fill:#F2F8FB;" d="M217.327,282.166h-61.602c-8.284,0-15-6.716-15-15c0-8.284,6.716-15,15-15h61.602    c8.284,0,15,6.716,15,15C232.327,275.45,225.611,282.166,217.327,282.166z"/>
	</g>
	<g>
		<path style="fill:#FFC12E;" d="M497.002,92.005h-482c-8.284,0-15,6.716-15,15v390c0,8.284,6.716,15,15,15h482    c8.284,0,15-6.716,15-15v-390C512.002,98.721,505.287,92.005,497.002,92.005z M452.002,437.005c0,8.284-6.716,15-15,15h-362    c-8.284,0-15-6.716-15-15v-270c0-8.284,6.716-15,15-15h362c8.284,0,15,6.716,15,15V437.005z"/>
		<path style="fill:#F7A520;" d="M497.002,92.005H256.335v60h180.668c8.284,0,15,6.716,15,15v270c0,8.284-6.716,15-15,15H256.335v60    h240.668c8.284,0,15-6.716,15-15v-390C512.002,98.721,505.287,92.005,497.002,92.005z"/>
	</g>
</g>















</svg>
